<?xml version="1.0" encoding="UTF-8"?>
<svg id="Camada_1" data-name="Camada 1" xmlns="http://www.w3.org/2000/svg" viewBox="0 0 200 50">
  <defs>
    <style>
      .cls-1 {
        fill: #fbbc00;
      }

      .cls-1, .cls-2, .cls-3 {
        stroke-width: 0px;
      }

      .cls-2 {
        fill: #fff;
      }

      .cls-3 {
        fill: #00e0b4;
      }

      .cls-4 {
        fill: none;
        stroke: #fff;
        stroke-width: 2px;
      }
    </style>
  </defs>
  <path class="cls-4" d="m5.14,1h29.14c2.29,0,4.14,1.85,4.14,4.13v38.72c0,2.28-1.85,4.13-4.14,4.13H5.14c-2.29,0-4.14-1.85-4.14-4.13V5.13C1,2.85,2.85,1,5.14,1Z"/>
  <path class="cls-1" d="m34.28,11.35c0,1.2-.36,2.38-1.03,3.38-.67,1-1.62,1.78-2.74,2.24-1.12.46-2.34.58-3.53.35-1.18-.24-2.27-.82-3.13-1.67-.85-.85-1.44-1.94-1.67-3.12-.24-1.18-.11-2.41.35-3.52.46-1.11,1.24-2.06,2.25-2.73,1-.67,2.18-1.03,3.39-1.03.8,0,1.6.15,2.34.46.74.31,1.42.75,1.98,1.32.57.57,1.02,1.24,1.32,1.98.31.74.46,1.53.46,2.33h0Z"/>
  <path class="cls-2" d="m31.05,22.76h-6.4c-1.42,0-2.57,1.15-2.57,2.57v4.48c0,1.42,1.15,2.57,2.57,2.57h6.4c1.42,0,2.57-1.15,2.57-2.57v-4.48c0-1.42-1.15-2.57-2.57-2.57Z"/>
  <path class="cls-3" d="m14.2,5.26h-6.4c-1.42,0-2.57,1.15-2.57,2.57v33.46c0,1.42,1.15,2.57,2.57,2.57h6.4c1.42,0,2.57-1.15,2.57-2.57V7.83c0-1.42-1.15-2.57-2.57-2.57Z"/>
  <path class="cls-2" d="m68.89,32.72c-.73.64-1.74,1.28-3.02,1.28-2.01,0-3.15-.82-3.15-3.29v-7.36h7.59c.18-.96.32-1.87.32-2.88,0-.91-.14-1.83-.32-2.7h-7.59v-5.71c-1.05-.18-2.19-.27-3.29-.27s-2.29.09-3.47.27v5.71h-3.7c-.14.91-.23,1.83-.23,2.74,0,1.01.09,1.97.23,2.83h3.7v9.05c0,5.3,3.75,7.41,8.73,7.41,3.29,0,5.49-1.19,7.04-2.42-.23-1.83-1.51-3.89-2.83-4.66Z"/>
  <path class="cls-2" d="m83.9,16.72c-4.75,0-8.14,1.97-9.65,3.34v19.06c1.14.18,2.24.27,3.38.27s2.33-.09,3.43-.27v-15.54c.73-.37,1.92-.64,3.34-.64.96,0,1.78.09,2.61.32,1.23-1.55,1.87-3.66,1.92-5.9-1.28-.41-2.97-.64-5.03-.64Z"/>
  <path class="cls-2" d="m99.91,16.81c-4.75,0-8.18,2.06-9.42,3.15.32,2.01,1.46,3.52,2.93,4.34,1.14-.87,3.34-1.87,5.9-1.87,3.2,0,4.48,1.33,4.48,3.2v.87c-1.32-.41-2.83-.59-4.57-.64-5.53-.05-9.46,2.29-9.46,6.86s3.61,7.13,9.83,7.13c3.98,0,7.73-.82,10.97-2.15v-11.38c0-6.77-4.34-9.51-10.65-9.51Zm-3.34,15.63c0-1.6,1.33-2.33,3.47-2.33,1.42,0,2.65.18,3.75.5v3.98c-1.1.32-2.19.5-3.29.5-2.61,0-3.93-1.05-3.93-2.65Z"/>
  <path class="cls-2" d="m125.71,39.9c3.52,0,6.17-1.42,7.73-2.83-.55-2.06-1.78-3.66-3.47-4.48-.96.87-2.1,1.6-4.21,1.6-3.52,0-5.12-2.7-5.12-5.94s1.74-5.85,5.07-5.85c1.65,0,2.93.69,3.84,1.51,1.69-1.05,3.11-2.97,3.52-4.8-1.28-1.14-4.21-2.42-7.54-2.42-6.72,0-11.75,4.53-11.75,11.66s4.57,11.57,11.93,11.57Z"/>
  <path class="cls-2" d="m150.15,28.33c2.97-2.7,5.76-6.22,8.23-10.56-1.33-.23-3.2-.32-4.43-.32-.96,0-2.19,0-3.34.14-1.74,3.34-4.34,6.17-7.27,8.09V9.18c-1.19-.18-2.33-.27-3.47-.27s-2.24.09-3.34.27v29.94c1.23.18,2.33.27,3.47.27s2.29-.09,3.34-.27v-6.31c.46-.18.91-.41,1.42-.69l6.31,7.18c.82.09,2.74.14,3.48.14,2.06,0,4.2-.27,4.98-.55l-9.37-10.56Z"/>
  <path class="cls-2" d="m172.46,8.63c-5.21,0-9.01,3.06-9.19,9.23h-2.83c-.18.87-.27,1.83-.27,2.83s.09,1.92.27,2.7h2.83v15.73c1.19.23,2.33.27,3.47.27s2.24-.05,3.34-.27v-15.68h4.75c.18-.87.32-1.78.32-2.79s-.14-1.92-.32-2.79h-4.75v-.69c0-2.15,1.05-2.97,2.83-2.97,1.19,0,2.06.32,2.79.78,1.28-.87,2.51-2.93,2.65-4.75-1.14-.78-3.15-1.6-5.9-1.6Z"/>
  <path class="cls-2" d="m194.96,17.32c-.87,0-1.83.05-2.7.14-.64,5.03-1.69,10.38-3.57,14.77-.14.32-.27.78-.37,1.23-.09-.32-.23-.73-.46-1.23-1.88-4.34-3.38-9.74-4.21-14.77-.78-.09-1.74-.14-2.56-.14-1.92,0-4.02.27-4.98.5,1.69,7.82,3.7,13.76,8.14,20.62-1.37,1.87-3.52,3.84-5.94,5.76.6,1.97,1.97,3.98,4.07,4.71,9.78-6.99,15.09-17.19,16.96-31.04-1.23-.32-2.79-.55-4.39-.55Z"/>
</svg>